<svg width="16" height="16" viewBox="0 0 16 16" fill="none" xmlns="http://www.w3.org/2000/svg">
<path fill-rule="evenodd" clip-rule="evenodd" d="M8.00005 15.6191C3.79889 15.6191 0.380951 12.2012 0.380951 8.00006C0.380951 3.79886 3.79889 0.380981 8.00005 0.380981C12.2012 0.380981 15.619 3.79886 15.619 8.00006C15.619 12.2012 12.2012 15.6191 8.00005 15.6191ZM14.4256 9.04301C14.2029 8.97272 12.4112 8.43833 10.3719 8.76479C11.2231 11.1039 11.5695 13.0089 11.6362 13.4048C13.0962 12.4176 14.1355 10.8538 14.4256 9.04301ZM10.5421 14.0006C10.4453 13.4297 10.0675 11.4397 9.15381 9.06548C9.13951 9.07038 9.1252 9.07501 9.1109 9.07996C5.44022 10.3591 4.12257 12.9046 4.00542 13.144C5.10888 14.0045 6.4956 14.5178 8.00005 14.5178C8.90154 14.5178 9.76076 14.3334 10.5421 14.0006ZM3.16519 12.3613C3.31259 12.109 5.09867 9.15168 8.45502 8.06683C8.53984 8.03941 8.62535 8.01363 8.71149 7.98941C8.54808 7.61966 8.37016 7.24954 8.18383 6.88495C4.93387 7.85762 1.78022 7.81694 1.49552 7.81113C1.4935 7.87716 1.49217 7.9434 1.49217 8.00996C1.49217 9.68144 2.12581 11.2076 3.16519 12.3613ZM1.62968 6.67708C1.92071 6.68091 4.6019 6.69257 7.64606 5.88418C6.56776 3.96733 5.4048 2.35576 5.23325 2.12046C3.41256 2.97923 2.05163 4.65763 1.62968 6.67708ZM6.47497 1.68303C6.65486 1.92387 7.83685 3.53348 8.90324 5.49281C11.2174 4.62547 12.197 3.30872 12.3141 3.142C11.1648 2.12237 9.65356 1.5021 8.00005 1.5021C7.47494 1.5021 6.96434 1.56509 6.47497 1.68303ZM13.0375 3.89454C12.9003 4.08011 11.8098 5.47811 9.40358 6.46052C9.55502 6.77053 9.70019 7.0858 9.83537 7.40316C9.88322 7.51567 9.92991 7.62759 9.97554 7.73904C12.141 7.46673 14.2925 7.90309 14.5071 7.94851C14.4928 6.41244 13.9439 5.00198 13.0375 3.89454Z" fill="black" fill-opacity="0.38"/>
</svg>
