<svg width="13" height="13" viewBox="0 0 13 13" fill="none" xmlns="http://www.w3.org/2000/svg">
<path fill-rule="evenodd" clip-rule="evenodd" d="M10.0048 12.7143V7.92696C10.0048 7.01903 9.75713 6.04919 8.66348 6.04919C8.04444 6.04919 7.50793 6.48252 7.30158 7.0603C7.21904 7.28728 7.21904 7.51427 7.21904 7.74125V12.7143H4.57777C4.57777 9.82538 4.5984 6.95712 4.51586 4.06823H6.80634L6.93015 5.28569H6.97142C7.52856 4.37776 8.56031 3.88252 9.61269 3.88252C11.8 3.88252 12.6667 5.63649 12.6667 7.61744V12.7143H10.0048ZM0.34761 12.7143V4.06823H2.98888V12.7143H0.34761ZM1.68888 0.333313C2.47301 0.333313 3.07142 0.869821 3.07142 1.67458C3.07142 2.49998 2.45237 3.01585 1.64761 3.01585C0.863483 3.01585 0.285706 2.45871 0.285706 1.67458C0.285706 0.869821 0.904753 0.333313 1.68888 0.333313Z" fill="black" fill-opacity="0.38"/>
</svg>
