<svg width="13" height="9" viewBox="0 0 13 9" fill="none" xmlns="http://www.w3.org/2000/svg">
<path fill-rule="evenodd" clip-rule="evenodd" d="M10.1796 1.53058C10.1796 1.53058 10.1796 1.43486 10.1796 1.53058C9.69217 1.05198 9.10725 0.860534 8.52232 0.956255C9.10725 0.860534 9.39971 0.669093 9.4972 0.573373C9.4972 0.477652 9.4972 0.381932 9.39971 0.381932C9.10725 0.381932 8.81478 0.477652 8.61981 0.573373C8.91227 0.381932 9.00976 0.286211 9.00976 0.190491C8.7173 0.190491 8.42483 0.381932 8.03488 0.669093C8.13237 0.477652 8.22986 0.381932 8.13237 0.286211C7.93739 0.381932 7.83991 0.477652 7.74242 0.669093C7.44995 0.956255 7.25498 1.1477 7.15749 1.43486C6.76754 2.1049 6.47508 2.67922 6.2801 3.34927H6.18261C5.98764 3.06211 5.69517 2.77495 5.30522 2.5835C4.91527 2.29634 4.42783 2.1049 3.8429 1.81774C3.25798 1.53058 2.67305 1.24342 1.99064 1.05198C1.99064 1.72202 2.2831 2.29634 2.96551 2.67922C2.77054 2.67922 2.47808 2.67922 2.2831 2.77495C2.2831 3.34927 2.77054 3.82787 3.64793 4.01931C3.35547 4.01931 3.063 4.11503 2.77054 4.30647C3.063 4.8808 3.55044 5.07224 4.33034 5.07224C4.23286 5.16796 4.03788 5.26368 4.03788 5.26368C3.94039 5.3594 3.8429 5.55084 3.94039 5.74228C4.13537 6.02944 4.33034 6.12516 4.81778 6.12516C4.13537 6.79521 3.25798 7.17809 2.2831 7.08237C1.69817 7.08237 1.01576 6.79521 0.333344 6.22088C1.01576 7.17809 1.99064 7.94385 3.16049 8.42246C4.52532 8.80534 5.89015 8.90106 7.15749 8.51818C8.42483 8.13529 9.59469 7.36953 10.4721 6.3166C10.862 5.74228 11.1545 5.16796 11.252 4.59364C11.9344 4.59364 12.4218 4.40219 12.7143 4.01931C12.5193 4.11503 12.0319 4.11503 11.3495 3.92359C12.0319 3.82787 12.5193 3.63643 12.6168 3.25355C12.1294 3.44499 11.6419 3.44499 11.1545 3.25355C11.057 2.5835 10.7645 2.00918 10.1796 1.53058Z" fill="black" fill-opacity="0.38"/>
</svg>
